<svg xmlns="http://www.w3.org/2000/svg" width="760" height="92" viewBox="0 0 760 92" fill="none" role="img" aria-label="Focus: Web Security, Web3 Security, Source-Code Review, Red Teaming, Active Directory, Mobile Security">
  <style>
    .pill { fill: #232334; stroke: #45415a; stroke-width: 1; }
    .txt  { fill: #cdd6f4; font-family: ui-monospace, "SF Mono", "IBM Plex Mono", Menlo, monospace; font-size: 13px; }
    .m    { fill: #cba6f7; }
    .t    { fill: #94e2d5; }
  </style>

  <!-- row 1 -->
  <rect class="pill" x="143.5" y="4"  width="129" height="34" rx="9"/>
  <circle class="m" cx="155.5" cy="21" r="3"/>
  <text class="txt" x="165.5" y="25.5">Web Security</text>

  <rect class="pill" x="288.5" y="4"  width="137" height="34" rx="9"/>
  <circle class="t" cx="300.5" cy="21" r="3"/>
  <text class="txt" x="310.5" y="25.5">Web3 Security</text>

  <rect class="pill" x="441.5" y="4"  width="175" height="34" rx="9"/>
  <circle class="m" cx="453.5" cy="21" r="3"/>
  <text class="txt" x="463.5" y="25.5">Source-Code Review</text>

  <!-- row 2 -->
  <rect class="pill" x="147" y="50" width="122" height="34" rx="9"/>
  <circle class="t" cx="159" cy="67" r="3"/>
  <text class="txt" x="169" y="71.5">Red Teaming</text>

  <rect class="pill" x="285" y="50" width="160" height="34" rx="9"/>
  <circle class="m" cx="297" cy="67" r="3"/>
  <text class="txt" x="307" y="71.5">Active Directory</text>

  <rect class="pill" x="461" y="50" width="152" height="34" rx="9"/>
  <circle class="t" cx="473" cy="67" r="3"/>
  <text class="txt" x="483" y="71.5">Mobile Security</text>
</svg>
