<svg xmlns="http://www.w3.org/2000/svg" width="600" height="44" viewBox="0 0 600 44" fill="none" xml:space="preserve" role="img" aria-label="Connect: X @0xAnan_, LinkedIn Youssef Anan, HackTheBox 0xAnan, Discord 0xanan, email Contact">
  <style>
    .pill { fill:#232334; stroke:#45415a; stroke-width:1; }
    .txt  { fill:#cdd6f4; font-family: ui-monospace,"SF Mono","IBM Plex Mono",Menlo,monospace; font-size:13px; }
    .ico  { fill:#cba6f7; }
  </style>

  <!-- X · @0xAnan_ -->
  <rect class="pill" x="12.5" y="4" width="107" height="34" rx="9"/>
  <g class="ico" transform="translate(24.5,13) scale(0.5833)"><path d="M18.244 2.25h3.308l-7.227 8.26 8.502 11.24h-6.66l-5.214-6.817L4.99 21.75H1.68l7.73-8.835L1.254 2.25H8.08l4.713 6.231 5.45-6.231Zm-1.161 17.52h1.833L7.084 4.126H5.117L17.083 19.77Z"/></g>
  <text class="txt" x="46.5" y="25.5">@0xAnan_</text>

  <!-- LinkedIn · Youssef Anan -->
  <rect class="pill" x="131.5" y="4" width="137" height="34" rx="9"/>
  <g class="ico" transform="translate(143.5,13) scale(0.5833)"><path d="M20.447 20.452h-3.554v-5.569c0-1.328-.027-3.037-1.852-3.037-1.853 0-2.136 1.445-2.136 2.939v5.667H9.351V9h3.414v1.561h.046c.477-.9 1.637-1.85 3.37-1.85 3.601 0 4.267 2.37 4.267 5.455v6.286ZM5.337 7.433a2.062 2.062 0 0 1-2.063-2.065 2.064 2.064 0 1 1 2.063 2.065Zm1.782 13.019H3.555V9h3.564v11.452ZM22.225 0H1.771C.792 0 0 .774 0 1.729v20.542C0 23.227.792 24 1.771 24h20.451C23.2 24 24 23.227 24 22.271V1.729C24 .774 23.2 0 22.222 0h.003Z"/></g>
  <text class="txt" x="165.5" y="25.5">Youssef Anan</text>

  <!-- HackTheBox · 0xAnan -->
  <rect class="pill" x="280.5" y="4" width="92" height="34" rx="9"/>
  <g class="ico" transform="translate(292.5,13) scale(0.5833)"><path d="m22.5106 6.4566.0008-.0123a.888.888 0 0 0-.2717-.6384c-.0084-.0084-.018-.0155-.0267-.0235-.0186-.0166-.0371-.0333-.0572-.0484-.0193-.0147-.04-.0276-.0607-.0406-.0096-.006-.0182-.0131-.0281-.0188L12.4576.1266a.891.891 0 0 0-.9223.0043L1.933 5.6744c-.0107.0062-.0203.014-.0307.0205-.0073.0047-.015.008-.0223.0128-.007.0047-.013.0106-.02.0155a.8769.8769 0 0 0-.147.1333l-.0026.003a.8872.8872 0 0 0-.2218.5847l.0009.014c-.0002.0088-.0015.0176-.0015.0264v11.0708c0 .3277.1802.6288.469.7836l9.5986 5.5417c.0076.0044.0158.0075.0236.0117a.8754.8754 0 0 0 .166.0687c.0134.004.0266.0083.0401.0117a.8793.8793 0 0 0 .072.0142c.0117.0019.0232.0045.0349.006a.835.835 0 0 0 .2157 0c.0117-.0015.0232-.0041.0348-.006a.9.9 0 0 0 .072-.0142c.0135-.0034.0267-.0077.04-.0117a.895.895 0 0 0 .0646-.0217.9134.9134 0 0 0 .1015-.047c.0078-.0042.016-.0072.0236-.0117l9.5986-5.5417a.8888.8888 0 0 0 .469-.7836V6.4779c0-.0071-.0012-.0142-.0014-.0213zM5.2543 6.0822l6.5367-3.774a.4182.4182 0 0 1 .4182 0l6.5366 3.774a.4182.4182 0 0 1 0 .7243l-6.5367 3.774a.4182.4182 0 0 1-.4182 0l-6.5366-3.774a.4182.4182 0 0 1 0-.7243zm5.6134 14.3449a.4172.4172 0 0 1-.626.3613L3.718 17.0218a.4173.4173 0 0 1-.2086-.3613V9.1279a.4172.4172 0 0 1 .6258-.3613l6.524 3.7666a.4172.4172 0 0 1 .2086.3614v7.5325zm9.623-3.7666a.4173.4173 0 0 1-.2086.3613l-6.5239 3.7666a.4172.4172 0 0 1-.6259-.3613v-7.5325c0-.149.0796-.2868.2087-.3614l6.5239-3.7666a.4172.4172 0 0 1 .6258.3613v7.5326z"/></g>
  <text class="txt" x="314.5" y="25.5">0xAnan</text>

  <!-- Discord · 0xanan -->
  <rect class="pill" x="384.5" y="4" width="92" height="34" rx="9"/>
  <g class="ico" transform="translate(396.5,13) scale(0.5833)"><path d="M20.317 4.369a19.79 19.79 0 0 0-4.885-1.515.074.074 0 0 0-.079.037c-.211.375-.444.865-.608 1.25a18.27 18.27 0 0 0-5.487 0 12.64 12.64 0 0 0-.617-1.25.077.077 0 0 0-.079-.037A19.736 19.736 0 0 0 3.677 4.37a.07.07 0 0 0-.032.027C.533 9.046-.32 13.58.099 18.057a.082.082 0 0 0 .031.057 19.9 19.9 0 0 0 5.993 3.03.078.078 0 0 0 .084-.028c.462-.63.874-1.295 1.226-1.994a.076.076 0 0 0-.041-.106 13.107 13.107 0 0 1-1.872-.892.077.077 0 0 1-.008-.128c.126-.094.252-.192.372-.291a.074.074 0 0 1 .077-.01c3.928 1.793 8.18 1.793 12.062 0a.074.074 0 0 1 .078.01c.12.099.246.197.373.291a.077.077 0 0 1-.006.127 12.3 12.3 0 0 1-1.873.892.077.077 0 0 0-.041.107c.36.698.772 1.362 1.225 1.993a.076.076 0 0 0 .084.028 19.839 19.839 0 0 0 6.002-3.03.077.077 0 0 0 .032-.054c.5-5.177-.838-9.674-3.549-13.66a.061.061 0 0 0-.031-.028ZM8.02 15.331c-1.183 0-2.157-1.085-2.157-2.419 0-1.333.956-2.419 2.157-2.419 1.21 0 2.176 1.096 2.157 2.42 0 1.333-.956 2.418-2.157 2.418Zm7.975 0c-1.183 0-2.157-1.085-2.157-2.419 0-1.333.955-2.419 2.157-2.419 1.21 0 2.176 1.096 2.157 2.42 0 1.333-.946 2.418-2.157 2.418Z"/></g>
  <text class="txt" x="418.5" y="25.5">0xanan</text>

  <!-- mail · Contact -->
  <rect class="pill" x="488.5" y="4" width="99" height="34" rx="9"/>
  <g class="ico" transform="translate(500.5,13) scale(0.5833)"><path d="M22 6c0-1.1-.9-2-2-2H4c-1.1 0-2 .9-2 2v12c0 1.1.9 2 2 2h16c1.1 0 2-.9 2-2V6zm-2 0-8 5-8-5h16zm0 12H4V8l8 5 8-5v10z"/></g>
  <text class="txt" x="522.5" y="25.5">Contact</text>
</svg>
